<?xml version="1.0" encoding="UTF-8" standalone="no"?>
<svg
   viewBox="0 0 640 448"
   version="1.1"
   id="svg4"
   sodipodi:docname="weather-tab-icon.svg"
   width="640"
   height="448"
   inkscape:version="1.2 (dc2aedaf03, 2022-05-15)"
   xmlns:inkscape="http://www.inkscape.org/namespaces/inkscape"
   xmlns:sodipodi="http://sodipodi.sourceforge.net/DTD/sodipodi-0.dtd"
   xmlns="http://www.w3.org/2000/svg"
   xmlns:svg="http://www.w3.org/2000/svg">
  <defs
     id="defs8" />
  <sodipodi:namedview
     id="namedview6"
     pagecolor="#505050"
     bordercolor="#ffffff"
     borderopacity="1"
     inkscape:showpageshadow="0"
     inkscape:pageopacity="0"
     inkscape:pagecheckerboard="1"
     inkscape:deskcolor="#505050"
     showgrid="false"
     inkscape:zoom="1.5898438"
     inkscape:cx="320.15725"
     inkscape:cy="224.23587"
     inkscape:window-width="1920"
     inkscape:window-height="1001"
     inkscape:window-x="-9"
     inkscape:window-y="-9"
     inkscape:window-maximized="1"
     inkscape:current-layer="svg4" />
  <!--! Font Awesome Pro 6.1.1 by @fontawesome - https://fontawesome.com License - https://fontawesome.com/license (Commercial License) Copyright 2022 Fonticons, Inc. -->
  <path
     d="M 96.2,168.1 C 96.07,165.4 96,162.7 96,160 96,71.6 167.6,0 256,0 315.3,0 367,32.25 394.7,80.2 409.9,69.1 428.3,64 448,64 c 53,0 96,42.1 96,96 0,12.2 -2.3,23.8 -6.4,34.6 C 596,206.4 640,258.1 640,320 640,390.7 582.7,448 512,448 H 144 C 64.47,448 0,383.5 0,304 0,241.2 40.17,187.8 96.2,168.1 Z"
     id="path2"
     style="fill:#808080;fill-opacity:1" />
</svg>
